<svg width="32" height="40" viewBox="0 0 32 40" fill="none" xmlns="http://www.w3.org/2000/svg">
<path fill-rule="evenodd" clip-rule="evenodd" d="M16 1.90478C8.17214 1.90478 1.88235 8.27468 1.88235 16.1271C1.88235 17.9717 2.72484 20.2756 4.11458 22.7776C5.48985 25.2536 7.33584 27.8099 9.20067 30.1294C11.0626 32.4453 12.9271 34.5051 14.3273 35.987C15.0177 36.7176 15.594 37.3064 16 37.7148C16.406 37.3064 16.9823 36.7176 17.6727 35.987C19.0729 34.5051 20.9374 32.4453 22.7993 30.1294C24.6642 27.8099 26.5101 25.2536 27.8854 22.7776C29.2752 20.2756 30.1176 17.9717 30.1176 16.1271C30.1176 8.27468 23.8279 1.90478 16 1.90478ZM16 39.048C15.3503 39.737 15.3499 39.7367 15.3499 39.7367L15.3378 39.7249L15.3039 39.692C15.2744 39.6632 15.231 39.6208 15.1747 39.5654C15.0622 39.4546 14.898 39.292 14.6896 39.0825C14.2729 38.6636 13.6789 38.057 12.9668 37.3034C11.5435 35.7971 9.64328 33.6982 7.74051 31.3315C5.84063 28.9684 3.92191 26.3183 2.47366 23.7109C1.03987 21.1296 0 18.4731 0 16.1271C0 7.21752 7.13767 0 16 0C24.8623 0 32 7.21752 32 16.1271C32 18.4731 30.9601 21.1296 29.5263 23.7109C28.0781 26.3183 26.1594 28.9684 24.2595 31.3315C22.3567 33.6982 20.4565 35.7971 19.0332 37.3034C18.3211 38.057 17.7271 38.6636 17.3104 39.0825C17.102 39.292 16.9378 39.4546 16.8253 39.5654C16.769 39.6208 16.7256 39.6632 16.6961 39.692L16.6622 39.7249L16.6501 39.7367C16.6501 39.7367 16.6497 39.737 16 39.048ZM16 39.048L16.6501 39.7367C16.2864 40.0878 15.7136 40.0878 15.3499 39.7367L16 39.048ZM16 12.1588C13.7476 12.1588 11.9216 14.0065 11.9216 16.2858C11.9216 18.5651 13.7476 20.4129 16 20.4129C18.2525 20.4129 20.0784 18.5651 20.0784 16.2858C20.0784 14.0065 18.2525 12.1588 16 12.1588ZM10.0392 16.2858C10.0392 12.9546 12.708 10.254 16 10.254C19.2921 10.254 21.9608 12.9546 21.9608 16.2858C21.9608 19.6171 19.2921 22.3176 16 22.3176C12.708 22.3176 10.0392 19.6171 10.0392 16.2858Z" fill="#383838"/>
</svg>
