<svg width="16" height="18" viewBox="0 0 16 18" fill="none" xmlns="http://www.w3.org/2000/svg">
<path fill-rule="evenodd" clip-rule="evenodd" d="M4.20117 4.61432C4.20117 2.59005 5.84585 0.947368 7.87675 0.947368C9.90764 0.947368 11.5523 2.59005 11.5523 4.61432C11.5523 6.63859 9.90764 8.28126 7.87675 8.28126C5.84585 8.28126 4.20117 6.63859 4.20117 4.61432ZM10.6833 8.28126C11.7873 7.43819 12.4997 6.10957 12.4997 4.61432C12.4997 2.06497 10.429 0 7.87675 0C5.32449 0 3.2538 2.06497 3.2538 4.61432C3.2538 6.10957 3.96614 7.43819 5.07018 8.28126H4.3224C1.9451 8.28126 0 10.2213 0 12.5957V17.5263C0 17.7879 0.212076 18 0.473684 18H15.281C15.5426 18 15.7547 17.7879 15.7547 17.5263V12.5957C15.7547 10.222 13.8096 8.28126 11.4323 8.28126H10.6833ZM7.87675 9.22863H4.3224C2.46651 9.22863 0.947368 10.7463 0.947368 12.5957V17.0526H14.8073V12.5957C14.8073 10.7469 13.2881 9.22863 11.4323 9.22863H7.87675Z" fill="#333333"/>
</svg>
