<?xml version="1.0" encoding="UTF-8"?>
<!DOCTYPE svg PUBLIC "-//W3C//DTD SVG 1.1//EN" "http://www.w3.org/Graphics/SVG/1.1/DTD/svg11.dtd">
<!-- Creator: CorelDRAW 2017 -->
<svg xmlns="http://www.w3.org/2000/svg" xml:space="preserve" width="1148px" height="548px" version="1.1" style="shape-rendering:geometricPrecision; text-rendering:geometricPrecision; image-rendering:optimizeQuality; fill-rule:evenodd; clip-rule:evenodd"
viewBox="0 0 1148 547.93"
 xmlns:xlink="http://www.w3.org/1999/xlink">
 <defs>
  <style type="text/css">
   <![CDATA[
    .fil1 {fill:white}
    .fil0 {fill:white;fill-rule:nonzero}
   ]]>
  </style>
 </defs>
 <g id="Слой_x0020_1">
  <metadata id="CorelCorpID_0Corel-Layer"/>
  <path class="fil0" d="M521.73 482.57l9.48 0 0 -27.45 8.81 0c1.7,0 3.39,0 3.39,2.03l0 25.42 9.49 0 0 -27.45 8.81 0c1.69,0 3.39,0 3.39,2.03l0 25.42 9.48 0 0 -24.74c0,-7.79 -6.77,-7.79 -13.55,-7.79l-39.3 0 0 32.53zm78.12 -7.8c0,7.8 6.78,7.8 13.55,7.8l24.4 0 0 -5.09 -25.07 0c-1.7,0 -3.39,0 -3.39,-2.03l0 -8.13 29.82 0 0 -9.49c0,-7.79 -6.78,-7.79 -13.56,-7.79l-12.2 0c-6.77,0 -13.55,0 -13.55,7.79l0 16.94zm9.49 -12.53l0 -5.09c0,-2.03 1.69,-2.03 3.39,-2.03l13.55 0c1.69,0 3.39,0 3.39,2.03l0 5.09 -20.33 0zm55.09 12.53c0,7.8 6.77,7.8 13.55,7.8l9.49 0 0 -5.09 -10.17 0c-1.69,0 -3.39,0 -3.39,-2.03l0 -20.33 13.56 0 0 -5.08 -13.56 0 0 -12.2 -9.48 0 0 36.93zm48.3 0c0,7.8 6.78,7.8 13.56,7.8l25.75 0 0 -24.74c0,-7.79 -6.78,-7.79 -13.55,-7.79l-23.05 0 0 5.08 23.72 0c1.7,0 3.39,0 3.39,2.03l0 5.09 -16.26 0c-6.78,0 -13.56,0 -13.56,7.79l0 4.74zm9.49 0.68l0 -6.1c0,-2.03 1.7,-2.03 3.39,-2.03l16.94 0 0 10.16 -16.94 0c-1.69,0 -3.39,0 -3.39,-2.03zm55.09 7.12l9.48 0 0 -44.73 -9.48 0 0 44.73zm34.75 0l9.49 0 0 -44.73 -9.49 0 0 44.73zm35.78 0l10.16 0 0 -8.14 -10.16 0 0 8.14zm33.73 -32.53l10.85 32.53 10.16 0 7.46 -22.37 7.45 22.37 10.17 0 10.84 -32.53 -8.81 0 -7.79 23.38 -7.12 -21.35 -9.49 0 -7.11 21.35 -7.8 -23.38 -8.81 0zm79.49 24.73c0,7.8 6.77,7.8 13.55,7.8l12.2 0c6.77,0 13.55,0 13.55,-7.8l0 -16.94c0,-7.79 -6.78,-7.79 -13.55,-7.79l-12.2 0c-6.78,0 -13.55,0 -13.55,7.79l0 16.94zm9.48 0.68l0 -18.3c0,-2.03 1.7,-2.03 3.39,-2.03l13.56 0c1.69,0 3.38,0 3.38,2.03l0 18.3c0,2.03 -1.69,2.03 -3.38,2.03l-13.56 0c-1.69,0 -3.39,0 -3.39,-2.03zm55.09 7.12l9.49 0 0 -25.42c0,-2.03 1.69,-2.03 3.38,-2.03l10.17 0 0 -5.08 -9.49 0c-6.77,0 -13.55,0 -13.55,7.79l0 24.74zm48.31 0l9.49 0 0 -44.73 -9.49 0 0 44.73zm34.75 -7.8c0,7.8 6.78,7.8 13.56,7.8l25.75 0 0 -44.73 -9.49 0 0 12.2 -16.26 0c-6.78,0 -13.56,0 -13.56,7.79l0 16.94zm9.49 0.68l0 -18.3c0,-2.03 1.7,-2.03 3.39,-2.03l16.94 0 0 22.36 -16.94 0c-1.69,0 -3.39,0 -3.39,-2.03z"/>
  <polygon class="fil1" points="645.93,78.35 659.33,78.35 659.33,131.03 645.48,131.03 645.48,97.41 620.27,131.03 606.65,131.03 606.65,78.35 620.49,78.35 620.49,111.97 645.71,78.35 "/>
  <path class="fil1" d="M1043.54 78.35l-0.01 -12.94c9.42,-0.02 18.83,0 28.24,0l-27.33 13.66 0 32.9 25.21 -33.62 13.62 0 0 52.68 -13.84 0 0 -33.62 -25.22 33.62 -13.62 0 0 -52.68 12.95 0z"/>
  <polygon class="fil1" points="716.68,187.19 691.69,187.19 691.69,213.08 677.85,213.08 677.85,160.4 691.69,160.4 691.69,179.82 716.68,179.82 716.68,160.4 730.53,160.4 730.53,213.08 716.68,213.08 "/>
  <polygon class="fil1" points="646.38,180.27 646.38,187.19 620.49,187.19 620.49,205.71 659.33,205.71 659.33,213.08 606.65,213.08 606.65,160.4 659.33,160.4 659.33,167.77 620.49,167.77 620.49,179.82 646.38,179.82 "/>
  <polygon class="fil1" points="801.71,160.85 801.71,167.77 782.29,167.77 782.29,213.08 768.45,213.08 768.45,167.77 749.03,167.77 749.03,160.4 801.71,160.4 "/>
  <polygon class="fil1" points="1015.31,242.61 1015.31,249.53 995.89,249.53 995.89,294.84 982.04,294.84 982.04,249.53 962.63,249.53 962.63,242.16 1015.31,242.16 "/>
  <polygon class="fil1" points="522.95,324.12 536.12,324.12 555.32,349.71 574.51,324.12 588.13,324.12 588.13,376.8 574.28,376.8 574.28,343.18 555.32,368.47 536.35,343.17 536.35,376.8 522.5,376.8 522.5,324.12 "/>
  <polygon class="fil1" points="646.38,343.98 646.38,350.91 620.49,350.91 620.49,369.43 659.33,369.43 659.33,376.8 606.65,376.8 606.65,324.12 659.33,324.12 659.33,331.49 620.49,331.49 620.49,343.54 646.38,343.54 "/>
  <polygon class="fil1" points="730.51,324.57 730.51,331.49 711.09,331.49 711.09,376.8 697.25,376.8 697.25,331.49 677.83,331.49 677.83,324.12 730.51,324.12 "/>
  <path class="fil1" d="M697.71 78.35l13.4 0 0 6.47 18.97 0c1.9,0 3.63,0.78 4.88,2.04 1.26,1.25 2.04,2.98 2.04,4.89l0 25.89c0,1.9 -0.78,3.63 -2.03,4.88 -1.26,1.26 -2.99,2.04 -4.89,2.04l-18.97 0 0 6.47 -13.85 0 0 -6.47 -18.96 0c-1.91,0 -3.64,-0.78 -4.89,-2.04 -1.26,-1.25 -2.04,-2.98 -2.04,-4.88l0 -25.89c0,-1.91 0.78,-3.64 2.04,-4.89 1.25,-1.26 2.98,-2.04 4.89,-2.04l18.96 0 0 -6.47 0.45 0zm13.4 13.84l0 25 8.18 0c1.06,0 2.03,-0.44 2.73,-1.14 0.7,-0.7 1.13,-1.67 1.13,-2.73l0 -17.26c0,-1.06 -0.43,-2.03 -1.13,-2.73 -0.7,-0.7 -1.67,-1.14 -2.73,-1.14l-8.18 0zm-13.85 25l0 -25 -8.18 0c-1.06,0 -2.03,0.44 -2.73,1.14 -0.7,0.7 -1.13,1.67 -1.13,2.73l0 17.26c0,1.06 0.43,2.03 1.13,2.73 0.7,0.7 1.67,1.14 2.73,1.14l8.18 0z"/>
  <path class="fil1" d="M620.04 294.84l-13.39 0 0 -52.68 48.36 0 0 7.37 -34.52 0 0 12.05 31.89 0c1.89,0 3.62,0.78 4.88,2.03 1.26,1.26 2.04,3 2.04,4.89l0 19.42c0,1.89 -0.79,3.62 -2.04,4.88 -1.26,1.26 -2.99,2.04 -4.88,2.04l-32.34 0zm0.45 -25.89l0 18.52 21.1 0c1.05,0 2.02,-0.44 2.72,-1.14 0.7,-0.7 1.14,-1.67 1.14,-2.73l0 -10.78c0,-1.06 -0.43,-2.03 -1.14,-2.73 -0.7,-0.7 -1.66,-1.14 -2.72,-1.14l-21.1 0z"/>
  <polygon class="fil1" points="1031.04,242.16 1044.44,242.16 1044.44,267.41 1069.69,242.16 1083.9,242.16 1057.57,268.5 1083.9,294.84 1069.69,294.84 1050.46,275.61 1044.44,281.63 1044.44,294.84 1030.59,294.84 1030.59,242.16 "/>
  <polygon class="fil1" points="1134.6,242.16 1148,242.16 1148,294.84 1134.15,294.84 1134.15,261.22 1108.93,294.84 1095.32,294.84 1095.32,242.16 1109.16,242.16 1109.16,275.78 1134.38,242.16 "/>
  <path class="fil1" d="M833.64 294.84l-13.4 0 0 -52.68 48.37 0 0 7.37 -34.52 0 0 12.05 31.88 0c1.9,0 3.63,0.78 4.88,2.03 1.26,1.26 2.04,3 2.04,4.89l0 19.42c0,1.89 -0.78,3.62 -2.04,4.88 -1.25,1.26 -2.99,2.04 -4.88,2.04l-32.33 0zm0.45 -25.89l0 18.52 21.1 0c1.05,0 2.02,-0.44 2.72,-1.14 0.7,-0.7 1.14,-1.67 1.14,-2.73l0 -10.78c0,-1.06 -0.44,-2.03 -1.14,-2.73 -0.7,-0.7 -1.67,-1.14 -2.72,-1.14l-21.1 0z"/>
  <path class="fil1" d="M826.07 78.35l41 0c2.49,0 4.76,1.02 6.41,2.67 1.64,1.64 2.67,3.92 2.67,6.41l0 34.52c0,2.5 -1.03,4.77 -2.67,6.41 -1.65,1.65 -3.92,2.67 -6.41,2.67l-41 0c-2.49,0 -4.77,-1.02 -6.41,-2.67 -1.64,-1.64 -2.67,-3.91 -2.67,-6.41l0 -34.52c0,-2.49 1.03,-4.77 2.67,-6.41 1.64,-1.65 3.92,-2.67 6.41,-2.67zm32.37 7.37l-23.74 0c-1.06,0 -2.03,0.44 -2.73,1.14 -0.7,0.7 -1.13,1.66 -1.13,2.73l0 30.2c0,1.07 0.43,2.03 1.13,2.73 0.7,0.7 1.67,1.14 2.73,1.14l23.74 0c1.06,0 2.03,-0.44 2.72,-1.14 0.71,-0.7 1.14,-1.66 1.14,-2.73l0 -30.2c0,-1.07 -0.44,-2.03 -1.14,-2.73 -0.69,-0.7 -1.66,-1.14 -2.72,-1.14z"/>
  <path class="fil1" d="M968.47 78.35l41 0c2.49,0 4.76,1.02 6.41,2.67 1.64,1.64 2.66,3.92 2.66,6.41l0 34.52c0,2.5 -1.02,4.77 -2.66,6.41 -1.65,1.65 -3.92,2.67 -6.41,2.67l-41 0c-2.5,0 -4.77,-1.02 -6.41,-2.67 -1.65,-1.64 -2.67,-3.91 -2.67,-6.41l0 -34.52c0,-2.49 1.02,-4.77 2.67,-6.41 1.64,-1.65 3.91,-2.67 6.41,-2.67zm32.36 7.37l-23.73 0c-1.06,0 -2.03,0.44 -2.73,1.14 -0.7,0.7 -1.13,1.66 -1.13,2.73l0 30.2c0,1.07 0.43,2.03 1.13,2.73 0.7,0.7 1.67,1.14 2.73,1.14l23.73 0c1.07,0 2.03,-0.44 2.73,-1.14 0.7,-0.7 1.14,-1.66 1.14,-2.73l0 -30.2c0,-1.06 -0.44,-2.03 -1.13,-2.73 -0.71,-0.7 -1.67,-1.14 -2.74,-1.14z"/>
  <path class="fil1" d="M788.04 281.89l-25.34 0 -6.47 12.95 -13.95 0c8.79,-17.55 17.6,-35.11 26.34,-52.68l13.5 0c8.81,17.54 17.57,35.11 26.34,52.68l-13.95 0 -6.47 -12.95zm-12.67 -25.33l-8.98 17.96 17.96 0 -8.98 -17.96z"/>
  <path class="fil1" d="M840.09 324.12l13.23 0c8.81,17.54 17.57,35.11 26.34,52.68l-13.95 0 -19.14 -38.29 -19.14 38.29 -13.95 0c8.79,-17.55 17.59,-35.11 26.34,-52.68l0.27 0z"/>
  <path class="fil1" d="M911.29 324.12l13.23 0c8.81,17.54 17.57,35.11 26.34,52.68l-13.95 0 -19.14 -38.29 -19.14 38.29 -13.95 0c8.79,-17.55 17.59,-35.11 26.34,-52.68l0.27 0z"/>
  <path class="fil1" d="M788.04 363.85l-25.34 0 -6.47 12.95 -13.95 0c8.79,-17.55 17.6,-35.11 26.34,-52.68l13.5 0c8.81,17.54 17.57,35.11 26.34,52.68l-13.95 0 -6.47 -12.95zm-12.67 -25.34l-8.98 17.97 17.96 0 -8.98 -17.97z"/>
  <path class="fil1" d="M1001.64 363.85l-25.34 0 -6.47 12.95 -13.95 0c8.79,-17.55 17.59,-35.11 26.34,-52.68l13.49 0c8.82,17.54 17.58,35.11 26.34,52.68l-13.94 0 -6.47 -12.95zm-12.67 -25.34l-8.99 17.97 17.97 0 -8.98 -17.97z"/>
  <path class="fil1" d="M937.17 101.45l0 0 0 0zm-32.33 29.58l-13.4 0 0 -52.68 45.73 0c1.9,0 3.63,0.78 4.88,2.04 1.26,1.25 2.04,2.99 2.04,4.88l0 9.71c0,1.89 -0.78,3.63 -2.04,4.88 -0.69,0.69 -1.52,1.24 -2.44,1.59 0.92,0.36 1.76,0.9 2.44,1.59 1.26,1.26 2.04,2.99 2.04,4.89l0 16.18c0,1.89 -0.78,3.62 -2.04,4.88 -1.25,1.26 -2.99,2.04 -4.88,2.04l-32.33 0zm0.45 -45.31l0 12.1 21.09 0c1.06,0 2.03,-0.44 2.73,-1.14 0.7,-0.7 1.14,-1.67 1.14,-2.73l0 -4.36c0,-1.06 -0.44,-2.03 -1.14,-2.73 -0.7,-0.7 -1.67,-1.14 -2.73,-1.14l-21.09 0zm0 19.42l0 18.52 21.09 0c1.06,0 2.03,-0.44 2.73,-1.14 0.7,-0.7 1.14,-1.67 1.14,-2.73l0 -10.78c0,-1.06 -0.44,-2.03 -1.14,-2.73 -0.7,-0.7 -1.67,-1.14 -2.73,-1.14l-21.09 0z"/>
  <path class="fil1" d="M534.82 242.16l40.99 0c2.5,0 4.77,1.02 6.42,2.67 1.64,1.64 2.66,3.91 2.66,6.41l0 34.52c0,2.5 -1.02,4.77 -2.66,6.41 -1.65,1.65 -3.92,2.67 -6.42,2.67l-40.99 0c-2.5,0 -4.77,-1.02 -6.41,-2.67 -1.65,-1.64 -2.67,-3.91 -2.67,-6.41l0 -34.52c0,-2.49 1.02,-4.77 2.67,-6.41 1.64,-1.65 3.91,-2.67 6.41,-2.67zm32.36 7.37l-23.73 0c-1.06,0 -2.03,0.44 -2.73,1.13 -0.7,0.71 -1.14,1.67 -1.14,2.74l0 30.2c0,1.07 0.44,2.03 1.14,2.73 0.7,0.7 1.67,1.14 2.73,1.14l23.73 0c1.07,0 2.03,-0.44 2.73,-1.14 0.7,-0.7 1.14,-1.66 1.14,-2.73l0 -30.2c0,-1.07 -0.44,-2.03 -1.14,-2.73 -0.7,-0.7 -1.66,-1.14 -2.73,-1.14z"/>
  <path class="fil1" d="M897.27 242.16l41 0c2.49,0 4.76,1.02 6.41,2.67 1.64,1.64 2.66,3.91 2.66,6.41l0 34.52c0,2.5 -1.02,4.77 -2.66,6.41 -1.65,1.65 -3.92,2.67 -6.41,2.67l-41 0c-2.49,0 -4.76,-1.02 -6.41,-2.67 -1.65,-1.64 -2.67,-3.91 -2.67,-6.41l0 -34.52c0,-2.5 1.02,-4.77 2.67,-6.41 1.64,-1.65 3.91,-2.67 6.41,-2.67zm32.36 7.37l-23.73 0c-1.06,0 -2.03,0.44 -2.73,1.13 -0.7,0.71 -1.13,1.67 -1.13,2.74l0 30.2c0,1.07 0.43,2.03 1.13,2.73 0.7,0.7 1.67,1.14 2.73,1.14l23.73 0c1.07,0 2.03,-0.44 2.73,-1.14 0.7,-0.7 1.14,-1.66 1.14,-2.73l0 -30.2c0,-1.07 -0.44,-2.03 -1.14,-2.73 -0.7,-0.7 -1.66,-1.14 -2.73,-1.14z"/>
  <polygon class="fil1" points="588.13,206.16 588.13,226.3 561.69,213.08 522.5,213.08 522.5,160.4 536.35,160.4 536.35,205.71 567.81,205.71 567.81,160.4 581.66,160.4 581.66,205.71 588.13,205.71 "/>
  <polygon class="fil1" points="588.13,124.11 588.13,144.25 561.69,131.03 522.5,131.03 522.5,78.35 536.35,78.35 536.35,123.66 567.81,123.66 567.81,78.35 581.66,78.35 581.66,123.66 588.13,123.66 "/>
  <path class="fil1" d="M749.5 78.35l45.27 0c1.9,0 3.63,0.78 4.88,2.04 1.26,1.26 2.05,2.99 2.05,4.88l0 12.95c0,1.89 -0.79,3.62 -2.05,4.88 -1.25,1.25 -2.98,2.04 -4.88,2.04l-31.88 0 0 25.89 -13.84 0 0 -52.67 0.45 -0.01zm13.39 7.37l0 12.05 21.1 0c1.05,0 2.02,-0.44 2.72,-1.14 0.7,-0.7 1.14,-1.67 1.14,-2.73l0 -4.31c0,-1.06 -0.44,-2.03 -1.14,-2.73 -0.7,-0.7 -1.66,-1.14 -2.72,-1.14l-21.1 0z"/>
  <path class="fil1" d="M820.69 160.4l45.28 0c1.9,0 3.63,0.78 4.88,2.04 1.26,1.26 2.04,2.99 2.04,4.88l0 12.95c0,1.89 -0.78,3.62 -2.04,4.88 -1.26,1.26 -2.99,2.04 -4.88,2.04l-31.88 0 0 25.89 -13.85 0 0 -52.67 0.45 -0.01zm13.4 7.37l0 12.05 21.09 0c1.06,0 2.03,-0.44 2.73,-1.14 0.7,-0.7 1.14,-1.67 1.14,-2.73l0 -4.31c0,-1.06 -0.44,-2.03 -1.14,-2.73 -0.7,-0.7 -1.67,-1.14 -2.73,-1.14l-21.09 0z"/>
  <path class="fil1" d="M678.31 242.16l45.28 0c1.9,0 3.63,0.78 4.88,2.03 1.26,1.26 2.04,3 2.04,4.89l0 12.94c0,1.9 -0.79,3.63 -2.04,4.88 -1.26,1.26 -2.99,2.05 -4.88,2.05l-31.88 0 0 25.89 -13.85 0 0 -52.68 0.45 0zm13.4 7.37l0 12.04 21.09 0c1.06,0 2.02,-0.44 2.73,-1.14 0.7,-0.7 1.14,-1.67 1.14,-2.72l0 -4.32c0,-1.05 -0.44,-2.02 -1.14,-2.72 -0.7,-0.7 -1.67,-1.14 -2.73,-1.14l-21.09 0z"/>
  <g id="_2879973179776">
   <path class="fil0" d="M86.44 335.4c0,4.27 -3.46,7.74 -7.74,7.74 -4.27,0 -7.74,-3.47 -7.74,-7.74l0 -163.82c0,-4.28 3.46,-7.74 7.74,-7.74 4.27,0 7.74,3.46 7.74,7.74l0 163.82zm138.01 -252.44l70.94 40.95c3.7,2.15 4.96,6.89 2.82,10.6 -0.8,1.37 -1.95,2.4 -3.27,3.06l-35.03 20.22 0.01 0.02 -35.47 20.47c-2.52,1.46 -5.51,1.35 -7.85,-0.04l-70.86 -40.91c-3.7,-2.15 -4.97,-6.89 -2.82,-10.59 0.71,-1.24 1.72,-2.21 2.88,-2.86l35.41 -20.45 0.43 -0.23 35.07 -20.24c2.48,-1.43 5.42,-1.32 7.73,0.01l0.01 -0.01zm27.69 33.89l-31.59 -18.24 -31.17 17.99 -0.4 0.25 -23.85 13.77 55.43 32 31.58 -18.23 0.01 0.01 23.86 -13.77 -23.87 -13.78zm-252.13 13.77c0,-4.27 3.47,-7.74 7.74,-7.74 4.28,0 7.74,3.47 7.74,7.74l0 241.25 138.03 79.7c0.88,0.5 1.62,1.15 2.2,1.9l70.71 81.65c2.8,3.23 2.44,8.12 -0.79,10.92 -3.23,2.8 -8.13,2.45 -10.93,-0.79l-70.06 -80.9 -140.78 -81.29c-2.3,-1.35 -3.86,-3.84 -3.86,-6.71l0 -245.73zm224.42 198.07c3.7,2.13 4.98,6.86 2.85,10.57 -2.13,3.7 -6.86,4.98 -10.56,2.85l-59.32 -34.24 0 68.48c0,4.29 -3.48,7.77 -7.77,7.77 -4.29,0 -7.77,-3.48 -7.77,-7.77l0 -81.9 0.04 0c0,-1.31 0.33,-2.64 1.03,-3.86 2.12,-3.7 6.85,-4.98 10.56,-2.85l70.94 40.95z"/>
   <path class="fil0" d="M283.73 294.45c0,-4.29 3.48,-7.77 7.77,-7.77 4.29,0 7.77,3.48 7.77,7.77l0 68.47 55.42 -32 0.01 -145.92 -130.25 75.2c-2.51,1.46 -5.51,1.34 -7.84,-0.04l-212.74 -122.83c-3.71,-2.15 -4.97,-6.89 -2.82,-10.59 0.71,-1.24 1.72,-2.21 2.88,-2.86l212.75 -122.83c2.52,-1.46 5.51,-1.35 7.85,0.04l108.14 62.43 104.6 60.39c2.61,1.52 4.01,4.33 3.85,7.16l0 245.28c0,2.87 -1.55,5.36 -3.86,6.7l-140.77 81.3 -70.07 80.9c-2.8,3.24 -7.69,3.59 -10.93,0.79 -1.84,-1.6 -2.75,-3.87 -2.67,-6.13l0 -204.51c0,-4.27 3.47,-7.74 7.74,-7.74 4.28,0 7.74,3.47 7.74,7.74l0 184.01 57.11 -65.94c0.59,-0.75 1.33,-1.4 2.2,-1.9l138.03 -79.7 0 -227.83 -55.46 32.02 0 158.89c0.16,2.83 -1.24,5.64 -3.86,7.16l-70.48 40.69c-1.24,0.83 -2.73,1.32 -4.34,1.32 -4.29,0 -7.77,-3.48 -7.77,-7.77l0 -81.9zm134.15 -163.83l-197.31 -113.91 -197.31 113.91 197.31 113.92 197.31 -113.92z"/>
  </g>
 </g>
</svg>
