<svg width="40" height="40" viewBox="0 0 40 40" fill="none" xmlns="http://www.w3.org/2000/svg">
<path fill-rule="evenodd" clip-rule="evenodd" d="M19.5776 2.04486C19.7668 1.87659 20.1247 1.83304 20.4277 2.0645C24.7032 5.85389 30.1505 6.79763 37.2237 6.28289L37.2237 6.28295L37.2337 6.28211C37.4712 6.2623 37.7497 6.45606 37.801 6.75711C39.8073 19.3018 31.2152 31.5408 20.2439 38.0311C20.1153 38.1031 19.9554 38.13 19.7133 38.0158C8.82311 31.588 0.239219 19.2954 2.18242 6.75533C2.23455 6.4553 2.51238 6.26234 2.74944 6.28211L2.74944 6.28216L2.75946 6.28289C9.84489 6.79852 15.2988 5.85063 19.5776 2.04486ZM21.6336 0.589807C20.6709 -0.180853 19.2614 -0.222962 18.3118 0.621687C14.5968 3.92598 9.77312 4.88304 2.90205 4.38357C1.61976 4.2797 0.5061 5.22675 0.302956 6.44638L0.302899 6.44637L0.301287 6.45676C-1.81046 20.0596 7.4786 33.0208 18.7786 39.6758C18.7973 39.6868 18.8164 39.6972 18.8358 39.7069C19.5916 40.0851 20.4394 40.1134 21.194 39.6819L21.206 39.675C32.5642 32.9591 41.8598 20.0609 39.6812 6.4523L39.6802 6.44638C39.4771 5.22675 38.3634 4.27969 37.0811 4.38357C30.21 4.88304 25.3864 3.92598 21.6714 0.621687C21.6591 0.610735 21.6465 0.600105 21.6336 0.589807ZM16.8249 14.4432C16.8249 16.093 18.1498 17.4334 19.7936 17.4585H19.8875C21.5314 17.4334 22.8563 16.093 22.8563 14.4432C22.8563 12.7776 21.5061 11.4275 19.8406 11.4275C18.175 11.4275 16.8249 12.7776 16.8249 14.4432ZM14.9202 14.4432C14.9202 15.6162 15.3307 16.6933 16.0158 17.5387C14.1292 17.9173 12.6993 19.5906 12.6993 21.5853V26.347C12.6993 26.8729 13.1257 27.2993 13.6517 27.2993H26.3495C26.8754 27.2993 27.3018 26.8729 27.3018 26.347V21.5853C27.3018 19.492 25.7272 17.7528 23.7026 17.4922C24.3653 16.6539 24.7609 15.5948 24.7609 14.4432C24.7609 11.7257 22.558 9.52283 19.8406 9.52283C17.1231 9.52283 14.9202 11.7257 14.9202 14.4432ZM16.8261 19.3632H19.7822C19.8016 19.3634 19.8211 19.3635 19.8406 19.3635C19.8601 19.3635 19.8795 19.3634 19.899 19.3632H23.175C24.395 19.3632 25.3971 20.3653 25.3971 21.5853V25.3946H14.604V21.5853C14.604 20.3653 15.6061 19.3632 16.8261 19.3632Z" fill="#2A9E89"/>
</svg>
