<svg width="60" height="60" viewBox="0 0 60 60" fill="none" xmlns="http://www.w3.org/2000/svg">
<path fill-rule="evenodd" clip-rule="evenodd" d="M32.0526 0.745708C30.8257 -0.236481 29.0607 -0.268811 27.8925 0.770191C21.9669 6.04077 14.3119 7.50787 3.67023 6.73389C2.10054 6.60524 0.70847 7.77151 0.454829 9.29433L0.453589 9.30231C-2.72894 29.8029 11.2819 49.4686 28.4949 59.6062C28.5093 59.6146 28.5239 59.6226 28.5388 59.63C29.5093 60.1156 30.5505 60.1374 31.4712 59.6109L31.4804 59.6055C48.7868 49.3725 62.8028 29.8039 59.5201 9.29889L59.5193 9.29434C59.2657 7.77152 57.8736 6.60524 56.3039 6.73389C45.6622 7.50787 38.0073 6.04076 32.0816 0.770191C32.0722 0.76178 32.0625 0.753617 32.0526 0.745708Z" fill="#2A9E89"/>
<path d="M19.8673 36.3661C19.8673 36.8816 19.4494 37.2992 18.9337 37.2992C18.4179 37.2992 18 36.8816 18 36.3661L18.0006 17.9331C18.0006 17.4176 18.4185 17 18.9337 17C19.1928 17 19.4271 17.1055 19.596 17.275L19.5966 17.2744L30.6623 28.3945C31.0264 28.7604 31.0245 29.352 30.6585 29.7153C30.2924 30.0792 29.7011 30.0779 29.337 29.712L19.8673 20.1959V36.3661ZM25.2594 36.3661C25.2594 36.8816 24.8409 37.2992 24.3257 37.2992C23.8099 37.2992 23.3921 36.8816 23.3921 36.3661V30.6631C23.3921 30.1476 23.8106 29.73 24.3257 29.73C24.5849 29.73 24.8191 29.8349 24.988 30.005L24.9887 30.0043L30.6623 35.7074C31.0264 36.0732 31.0245 36.6648 30.6585 37.0281C30.2924 37.392 29.7011 37.3907 29.337 37.0249L25.2594 32.9259V36.3661Z" fill="white"/>
<path d="M30.6626 29.8087C30.2985 30.1746 29.7066 30.1758 29.3412 29.8126C28.9751 29.4486 28.9732 28.857 29.3373 28.4912L40.403 17.371C40.7665 17.0052 41.3584 17.0039 41.7245 17.3672C41.919 17.561 42.0105 17.8181 41.999 18.072L41.9996 36.4628C41.9996 36.9783 41.5817 37.3959 41.066 37.3959V37.3998H35.6739C35.1562 37.3998 34.7364 36.9802 34.7364 36.4628C34.7364 36.4346 34.7377 36.4071 34.7403 36.3796L34.7396 30.7598C34.7396 30.2443 35.1581 29.8266 35.6733 29.8266C36.1891 29.8266 36.6069 30.2443 36.6069 30.7598L36.6076 35.5258H40.1323V20.2926L30.6626 29.8087Z" fill="white"/>
</svg>
