<svg width="16" height="16" viewBox="0 0 16 16" fill="none" xmlns="http://www.w3.org/2000/svg">
<path fill-rule="evenodd" clip-rule="evenodd" d="M1.45008 0.942457C1.95487 0.361741 2.65866 0 3.42973 0C4.11084 0 4.73859 0.269546 5.22531 0.74237L5.23103 0.747933L6.0283 1.54673C6.52747 2.06355 6.85259 2.76192 6.88218 3.53044C6.93302 4.28826 6.69448 5.05055 6.20819 5.61621L5.74406 6.19592C5.52122 6.45975 5.25352 6.68709 4.94861 6.85194C5.8592 8.63754 7.26571 10.039 8.94049 10.8754C9.04429 10.6485 9.17614 10.4385 9.32915 10.2521L9.79522 9.67002L9.80219 9.66199C10.307 9.08128 11.0108 8.71954 11.7818 8.71954C12.463 8.71954 13.0907 8.98908 13.5774 9.46191L13.5831 9.46747L14.376 10.2619C15.4474 11.3449 15.5308 13.154 14.5642 14.3309L14.094 14.9182L14.0823 14.931C13.9183 15.1102 13.7085 15.3154 13.4564 15.4712C12.866 15.8768 12.0929 16.0628 11.2938 15.9811C5.71517 15.4287 1.12301 10.8685 0.0729568 4.90601C-0.165951 3.5483 0.209304 2.34737 0.79967 1.77149C0.800585 1.77012 0.801508 1.76874 0.802438 1.76736C0.846974 1.70087 0.908577 1.60891 0.984267 1.52357L1.4431 0.950484L1.45008 0.942457ZM4.24995 6.00395C4.5192 5.91697 4.76986 5.73984 4.97967 5.49302L5.4431 4.91419L5.44983 4.90643C5.74792 4.56256 5.90248 4.08362 5.86839 3.59926L5.8677 3.58946L5.86736 3.57964C5.85063 3.10429 5.65002 2.65455 5.31778 2.30921L4.53272 1.52273C4.22862 1.22854 3.84635 1.06667 3.42973 1.06667C2.97301 1.06667 2.53665 1.27859 2.207 1.654L1.74164 2.23524L1.72996 2.248C1.70586 2.27434 1.69293 2.29347 1.65546 2.34889C1.64118 2.37001 1.62333 2.39641 1.59994 2.4305L1.57897 2.46105L1.51787 2.52783L1.50243 2.54217C1.23061 2.79468 0.875206 3.59426 1.07191 4.71213C2.04388 10.2312 6.28698 14.4143 11.3899 14.9192L11.3916 14.9194C11.9931 14.981 12.5331 14.834 12.908 14.5732L12.9209 14.5643L12.9343 14.5562C13.068 14.475 13.2016 14.3526 13.3384 14.2043L13.7933 13.6361C14.4065 12.8915 14.3575 11.7248 13.6723 11.0312C13.672 11.0309 13.6717 11.0306 13.6714 11.0303L12.8848 10.2423C12.5807 9.94808 12.1985 9.7862 11.7818 9.7862C11.3251 9.7862 10.8888 9.99812 10.5591 10.3735L10.1001 10.9469C9.94765 11.132 9.82992 11.3534 9.76331 11.59L9.76007 11.6015L9.5573 12.2658L8.91844 12.0331L8.90338 12.0264C6.72131 11.0624 4.91502 9.2632 3.85105 6.93761L3.52715 6.22964L4.24995 6.00395Z" fill="#383838"/>
</svg>
