<svg width="80" height="80" viewBox="0 0 80 80" fill="none" xmlns="http://www.w3.org/2000/svg">
<path fill-rule="evenodd" clip-rule="evenodd" d="M0.97561 0C0.436795 0 0 0.436795 0 0.97561V28.2927V79.0244C0 79.5632 0.436795 80 0.97561 80H79.0244C79.5632 80 80 79.5632 80 79.0244V28.2927V0.97561C80 0.436795 79.5632 0 79.0244 0H0.97561ZM78.0488 27.3171V1.95122H1.95122V27.3171H78.0488ZM1.95122 29.2683H78.0488V78.0488H1.95122V29.2683ZM21.9512 10.7317C20.0654 10.7317 18.5366 12.2605 18.5366 14.1463C18.5366 16.0322 20.0654 17.561 21.9512 17.561C23.8371 17.561 25.3659 16.0322 25.3659 14.1463C25.3659 12.2605 23.8371 10.7317 21.9512 10.7317ZM16.5854 14.1463C16.5854 11.1829 18.9877 8.78049 21.9512 8.78049C24.9147 8.78049 27.3171 11.1829 27.3171 14.1463C27.3171 17.1098 24.9147 19.5122 21.9512 19.5122C18.9877 19.5122 16.5854 17.1098 16.5854 14.1463ZM35.4468 16.9106C34.908 16.9106 34.4712 17.3474 34.4712 17.8862C34.4712 18.425 34.908 18.8618 35.4468 18.8618H62.7639C63.3027 18.8618 63.7395 18.425 63.7395 17.8862C63.7395 17.3474 63.3027 16.9106 62.7639 16.9106H35.4468ZM34.4712 10.0813C34.4712 9.54248 34.908 9.10569 35.4468 9.10569H62.7639C63.3027 9.10569 63.7395 9.54248 63.7395 10.0813C63.7395 10.6201 63.3027 11.0569 62.7639 11.0569H35.4468C34.908 11.0569 34.4712 10.6201 34.4712 10.0813ZM17.561 43.9024C17.0222 43.9024 16.5854 44.3392 16.5854 44.8781C16.5854 45.4169 17.0222 45.8537 17.561 45.8537H62.439C62.9778 45.8537 63.4146 45.4169 63.4146 44.8781C63.4146 44.3392 62.9778 43.9024 62.439 43.9024H17.561ZM16.5854 60.4878C16.5854 59.949 17.0222 59.5122 17.561 59.5122H62.439C62.9778 59.5122 63.4146 59.949 63.4146 60.4878C63.4146 61.0266 62.9778 61.4634 62.439 61.4634H17.561C17.0222 61.4634 16.5854 61.0266 16.5854 60.4878ZM17.561 67.3171C17.0222 67.3171 16.5854 67.7539 16.5854 68.2927C16.5854 68.8315 17.0222 69.2683 17.561 69.2683H62.439C62.9778 69.2683 63.4146 68.8315 63.4146 68.2927C63.4146 67.7539 62.9778 67.3171 62.439 67.3171H17.561ZM16.5854 37.0732C16.5854 36.5344 17.0222 36.0976 17.561 36.0976H62.439C62.9778 36.0976 63.4146 36.5344 63.4146 37.0732C63.4146 37.612 62.9778 38.0488 62.439 38.0488H17.561C17.0222 38.0488 16.5854 37.612 16.5854 37.0732ZM17.561 51.7073C17.0222 51.7073 16.5854 52.1441 16.5854 52.6829C16.5854 53.2217 17.0222 53.6585 17.561 53.6585H62.439C62.9778 53.6585 63.4146 53.2217 63.4146 52.6829C63.4146 52.1441 62.9778 51.7073 62.439 51.7073H17.561Z" fill="#383838"/>
</svg>
