<svg width="160" height="80" viewBox="0 0 160 80" fill="none" xmlns="http://www.w3.org/2000/svg">
<g clip-path="url(#clip0)">
<path fill-rule="evenodd" clip-rule="evenodd" d="M43.1934 0.998779C43.1934 0.446495 43.6411 -0.0012207 44.1934 -0.0012207H96.1942C96.7465 -0.0012207 97.1942 0.446495 97.1942 0.998779V19.6611C97.4791 19.7634 97.75 19.9132 97.9932 20.1079C98.0067 20.1187 98.02 20.1298 98.0329 20.1413C101.829 23.5178 106.759 24.4977 113.791 23.9866C115.118 23.8792 116.269 24.8587 116.479 26.1193L116.48 26.1255C118.712 40.0722 109.186 53.2861 97.5525 60.1649L97.5399 60.1723C97.4265 60.2371 97.311 60.2919 97.1942 60.337V79C97.1942 79.5523 96.7465 80 96.1942 80H44.1934C43.6411 80 43.1934 79.5523 43.1934 79V0.998779ZM96.412 58.4893C96.3212 58.469 96.2277 58.4614 96.134 58.4671C96.0992 58.4557 96.0623 58.4411 96.0232 58.4227C84.8794 51.8447 76.1006 39.2684 78.0878 26.4438C78.1392 26.1487 78.4126 25.9611 78.6416 25.9802L78.6521 25.981C85.909 26.5091 91.5011 25.5387 95.8892 21.6357C95.9404 21.5902 96.0048 21.5538 96.0775 21.5299C96.1908 21.5433 96.3047 21.537 96.4144 21.5122C96.5189 21.5332 96.6258 21.5793 96.727 21.6565C101.112 25.5422 106.697 26.5081 113.941 25.981L113.951 25.9802C114.181 25.961 114.455 26.1495 114.505 26.4456C116.557 39.2751 107.77 51.7968 96.5423 58.4388C96.5027 58.4609 96.4598 58.4789 96.412 58.4893ZM95.1855 19.7321C94.9634 19.834 94.7526 19.97 94.56 20.1413C91.6785 22.7042 88.1436 23.8864 83.5321 24.0837C81.755 18.5939 76.6006 14.624 70.5189 14.624C62.9663 14.624 56.8438 20.7466 56.8438 28.2992C56.8438 35.8518 62.9663 41.9744 70.5189 41.9744C73.1172 41.9744 75.5462 41.2498 77.6149 39.9917C78.6205 42.7253 80.0082 45.3382 81.6842 47.7739H56.8672C56.3149 47.7739 55.8672 48.2216 55.8672 48.7739C55.8672 49.3262 56.3149 49.7739 56.8672 49.7739H83.1555C86.4499 53.9727 90.5942 57.5464 95.0419 60.1658C95.0616 60.1774 95.0816 60.1883 95.102 60.1985C95.1297 60.2123 95.1575 60.2257 95.1855 60.2387V60.4008L95.1942 60.4033V78H45.1934V1.99878H95.1942V19.5772L95.1855 19.5794V19.7321ZM76.9671 38.0338C75.8451 34.2188 75.4803 30.2028 76.1125 26.1302L76.1142 26.1193C76.3242 24.8586 77.4753 23.8792 78.8018 23.9866C79.7086 24.0525 80.5804 24.0936 81.4193 24.108C79.735 19.7305 75.4898 16.624 70.5189 16.624C64.0709 16.624 58.8438 21.8512 58.8438 28.2992C58.8438 34.7473 64.0709 39.9744 70.5189 39.9744C72.9026 39.9744 75.1195 39.2601 76.9671 38.0338ZM56.8672 55.5741C56.3149 55.5741 55.8672 56.0218 55.8672 56.5741C55.8672 57.1264 56.3149 57.5741 56.8672 57.5741H84.1676C84.7199 57.5741 85.1676 57.1264 85.1676 56.5741C85.1676 56.0218 84.7199 55.5741 84.1676 55.5741H56.8672ZM55.8672 64.3741C55.8672 63.8219 56.3149 63.3741 56.8672 63.3741H84.1676C84.7199 63.3741 85.1676 63.8219 85.1676 64.3741C85.1676 64.9264 84.7199 65.3741 84.1676 65.3741H56.8672C56.3149 65.3741 55.8672 64.9264 55.8672 64.3741Z" fill="#383838"/>
</g>
<defs>
<clipPath id="clip0">
<rect width="160" height="80" fill="white"/>
</clipPath>
</defs>
</svg>
