<svg width="160" height="80" viewBox="0 0 160 80" fill="none" xmlns="http://www.w3.org/2000/svg">
<path fill-rule="evenodd" clip-rule="evenodd" d="M36.6265 0C36.0942 0 35.6627 0.436795 35.6627 0.97561V79.0244C35.6627 79.5632 36.0942 80 36.6265 80H88.0321C88.5645 80 88.996 79.5632 88.996 79.0244V0.97561C88.996 0.436795 88.5645 0 88.0321 0H36.6265ZM37.5904 78.0488V1.95122H87.0683V78.0488H37.5904ZM49.1566 55.6098C48.6243 55.6098 48.1928 56.0466 48.1928 56.5854C48.1928 57.1242 48.6243 57.561 49.1566 57.561H76.1446C76.6769 57.561 77.1084 57.1242 77.1084 56.5854C77.1084 56.0466 76.6769 55.6098 76.1446 55.6098H49.1566ZM48.1928 48.7805C48.1928 48.2417 48.6243 47.8049 49.1566 47.8049H76.1446C76.6769 47.8049 77.1084 48.2417 77.1084 48.7805C77.1084 49.3193 76.6769 49.7561 76.1446 49.7561H49.1566C48.6243 49.7561 48.1928 49.3193 48.1928 48.7805ZM49.1566 63.4146C48.6243 63.4146 48.1928 63.8514 48.1928 64.3902C48.1928 64.9291 48.6243 65.3659 49.1566 65.3659H76.1446C76.6769 65.3659 77.1084 64.9291 77.1084 64.3902C77.1084 63.8514 76.6769 63.4146 76.1446 63.4146H49.1566ZM62.6506 16.5854C56.2627 16.5854 51.0843 21.8269 51.0843 28.2927C51.0843 34.7585 56.2627 40 62.6506 40C69.0385 40 74.2169 34.7585 74.2169 28.2927C74.2169 21.8269 69.0385 16.5854 62.6506 16.5854ZM49.1566 28.2927C49.1566 20.7493 55.1981 14.6341 62.6506 14.6341C70.1031 14.6341 76.1446 20.7493 76.1446 28.2927C76.1446 35.8361 70.1031 41.9512 62.6506 41.9512C55.1981 41.9512 49.1566 35.8361 49.1566 28.2927ZM0.963855 20.4878C0.431533 20.4878 0 20.9246 0 21.4634V60.9756C0 61.5144 0.431533 61.9512 0.963855 61.9512H26.988C27.5203 61.9512 27.9518 61.5144 27.9518 60.9756V21.4634C27.9518 20.9246 27.5203 20.4878 26.988 20.4878H0.963855ZM1.92771 60V22.439H26.0241V60H1.92771ZM6.34356 49.6159C6.34356 49.077 6.77509 48.6402 7.30742 48.6402H20.9701C21.5024 48.6402 21.9339 49.077 21.9339 49.6159C21.9339 50.1547 21.5024 50.5915 20.9701 50.5915H7.30742C6.77509 50.5915 6.34356 50.1547 6.34356 49.6159ZM7.30742 44.689C6.77509 44.689 6.34356 45.1258 6.34356 45.6646C6.34356 46.2034 6.77509 46.6402 7.30742 46.6402H20.9701C21.5024 46.6402 21.9339 46.2034 21.9339 45.6646C21.9339 45.1258 21.5024 44.689 20.9701 44.689H7.30742ZM6.34356 53.5671C6.34356 53.0283 6.77509 52.5915 7.30742 52.5915H20.9701C21.5024 52.5915 21.9339 53.0283 21.9339 53.5671C21.9339 54.1059 21.5024 54.5427 20.9701 54.5427H7.30742C6.77509 54.5427 6.34356 54.1059 6.34356 53.5671ZM8.75922 35.2927C8.75922 32.2854 11.1677 29.8476 14.1387 29.8476C17.1098 29.8476 19.5183 32.2854 19.5183 35.2927C19.5183 38.2999 17.1098 40.7378 14.1387 40.7378C11.1677 40.7378 8.75922 38.2999 8.75922 35.2927ZM14.1387 27.8963C10.1031 27.8963 6.83151 31.2078 6.83151 35.2927C6.83151 39.3776 10.1031 42.689 14.1387 42.689C18.1744 42.689 21.446 39.3776 21.446 35.2927C21.446 31.2078 18.1744 27.8963 14.1387 27.8963ZM96.3855 21.4634C96.3855 20.9246 96.8171 20.4878 97.3494 20.4878H123.373C123.906 20.4878 124.337 20.9246 124.337 21.4634V60.9756C124.337 61.5144 123.906 61.9512 123.373 61.9512H97.3494C96.8171 61.9512 96.3855 61.5144 96.3855 60.9756V21.4634ZM98.3133 22.439V60H122.41V22.439H98.3133ZM103.693 48.6402C103.161 48.6402 102.729 49.077 102.729 49.6159C102.729 50.1547 103.161 50.5915 103.693 50.5915H117.356C117.888 50.5915 118.319 50.1547 118.319 49.6159C118.319 49.077 117.888 48.6402 117.356 48.6402H103.693ZM102.729 45.6646C102.729 45.1258 103.161 44.689 103.693 44.689H117.356C117.888 44.689 118.319 45.1258 118.319 45.6646C118.319 46.2034 117.888 46.6402 117.356 46.6402H103.693C103.161 46.6402 102.729 46.2034 102.729 45.6646ZM103.693 52.5915C103.161 52.5915 102.729 53.0283 102.729 53.5671C102.729 54.1059 103.161 54.5427 103.693 54.5427H117.356C117.888 54.5427 118.319 54.1059 118.319 53.5671C118.319 53.0283 117.888 52.5915 117.356 52.5915H103.693ZM110.524 29.8476C107.553 29.8476 105.145 32.2854 105.145 35.2927C105.145 38.2999 107.553 40.7378 110.524 40.7378C113.495 40.7378 115.904 38.2999 115.904 35.2927C115.904 32.2854 113.495 29.8476 110.524 29.8476ZM103.217 35.2927C103.217 31.2078 106.489 27.8963 110.524 27.8963C114.56 27.8963 117.832 31.2078 117.832 35.2927C117.832 39.3776 114.56 42.689 110.524 42.689C106.489 42.689 103.217 39.3776 103.217 35.2927ZM133.012 20.4878C132.48 20.4878 132.048 20.9246 132.048 21.4634V60.9756C132.048 61.5144 132.48 61.9512 133.012 61.9512H159.036C159.568 61.9512 160 61.5144 160 60.9756V21.4634C160 20.9246 159.568 20.4878 159.036 20.4878H133.012ZM133.976 60V22.439H158.072V60H133.976ZM138.392 49.6159C138.392 49.077 138.823 48.6402 139.356 48.6402H153.018C153.551 48.6402 153.982 49.077 153.982 49.6159C153.982 50.1547 153.551 50.5915 153.018 50.5915H139.356C138.823 50.5915 138.392 50.1547 138.392 49.6159ZM139.356 44.689C138.823 44.689 138.392 45.1258 138.392 45.6646C138.392 46.2034 138.823 46.6402 139.356 46.6402H153.018C153.551 46.6402 153.982 46.2034 153.982 45.6646C153.982 45.1258 153.551 44.689 153.018 44.689H139.356ZM138.392 53.5671C138.392 53.0283 138.823 52.5915 139.356 52.5915H153.018C153.551 52.5915 153.982 53.0283 153.982 53.5671C153.982 54.1059 153.551 54.5427 153.018 54.5427H139.356C138.823 54.5427 138.392 54.1059 138.392 53.5671ZM140.807 35.2927C140.807 32.2854 143.216 29.8476 146.187 29.8476C149.158 29.8476 151.566 32.2854 151.566 35.2927C151.566 38.2999 149.158 40.7378 146.187 40.7378C143.216 40.7378 140.807 38.2999 140.807 35.2927ZM146.187 27.8963C142.151 27.8963 138.88 31.2078 138.88 35.2927C138.88 39.3776 142.151 42.689 146.187 42.689C150.223 42.689 153.494 39.3776 153.494 35.2927C153.494 31.2078 150.223 27.8963 146.187 27.8963Z" fill="#383838"/>
</svg>
