<svg width="80" height="80" viewBox="0 0 80 80" fill="none" xmlns="http://www.w3.org/2000/svg">
<path d="M10.6667 58.667H5.33333C2.392 58.667 0 56.275 0 53.3337V40.0003C0 37.059 2.392 34.667 5.33333 34.667H10.6667C13.608 34.667 16 37.059 16 40.0003V53.3337C16 56.275 13.608 58.667 10.6667 58.667ZM5.33333 40.0003V53.3337H10.672L10.6667 40.0003H5.33333Z" fill="black"/>
<path d="M74.6667 58.667H69.3333C66.392 58.667 64 56.275 64 53.3337V40.0003C64 37.059 66.392 34.667 69.3333 34.667H74.6667C77.608 34.667 80 37.059 80 40.0003V53.3337C80 56.275 77.608 58.667 74.6667 58.667ZM69.3333 40.0003V53.3337H74.672L74.6667 40.0003H69.3333Z" fill="black"/>
<path d="M40 80C35.5893 80 32 76.4107 32 72C32 67.5893 35.5893 64 40 64C44.4107 64 48 67.5893 48 72C48 76.4107 44.4107 80 40 80ZM40 69.3333C38.528 69.3333 37.3333 70.528 37.3333 72C37.3333 73.472 38.528 74.6667 40 74.6667C41.472 74.6667 42.6667 73.472 42.6667 72C42.6667 70.528 41.472 69.3333 40 69.3333Z" fill="black"/>
<path d="M72.0002 74.6663C70.5255 74.6663 69.3335 73.4743 69.3335 71.9997V55.9997C69.3335 54.525 70.5255 53.333 72.0002 53.333C73.4748 53.333 74.6668 54.525 74.6668 55.9997V71.9997C74.6668 73.4743 73.4748 74.6663 72.0002 74.6663Z" fill="black"/>
<path d="M71.9998 74.6663H45.3332C43.8585 74.6663 42.6665 73.4743 42.6665 71.9997C42.6665 70.525 43.8585 69.333 45.3332 69.333H71.9998C73.4745 69.333 74.6665 70.525 74.6665 71.9997C74.6665 73.4743 73.4745 74.6663 71.9998 74.6663Z" fill="black"/>
<path d="M8.00016 34.6667C6.5255 34.6667 5.3335 33.472 5.3335 32C5.3335 14.3547 19.6882 0 37.3335 0C38.8082 0 40.0002 1.19467 40.0002 2.66667C40.0002 4.13867 38.8082 5.33333 37.3335 5.33333C22.6295 5.33333 10.6668 17.296 10.6668 32C10.6668 33.472 9.47483 34.6667 8.00016 34.6667Z" fill="black"/>
<path d="M72 34.6667C70.5253 34.6667 69.3333 33.472 69.3333 32C69.3333 17.296 57.3707 5.33333 42.6667 5.33333C41.192 5.33333 40 4.13867 40 2.66667C40 1.19467 41.192 0 42.6667 0C60.312 0 74.6667 14.3547 74.6667 32C74.6667 33.472 73.4747 34.6667 72 34.6667Z" fill="black"/>
</svg>
